<svg width="15" height="15" viewBox="0 0 15 15" fill="none" xmlns="http://www.w3.org/2000/svg">
<path d="M7.36083 14.7216C5.90499 14.7216 4.48185 14.2899 3.27137 13.4811C2.06089 12.6723 1.11744 11.5227 0.560313 10.1777C0.00318932 8.83268 -0.14258 7.35266 0.141439 5.9248C0.425458 4.49694 1.12651 3.18537 2.15594 2.15594C3.18537 1.12651 4.49694 0.425458 5.9248 0.141439C7.35266 -0.14258 8.83268 0.00318932 10.1777 0.560313C11.5227 1.11744 12.6723 2.06089 13.4811 3.27137C14.2899 4.48185 14.7216 5.90499 14.7216 7.36083C14.7216 9.31304 13.9461 11.1853 12.5657 12.5657C11.1853 13.9461 9.31304 14.7216 7.36083 14.7216ZM7.36083 1.05155C6.11297 1.05155 4.89314 1.42158 3.85558 2.11485C2.81802 2.80813 2.00935 3.7935 1.53181 4.94637C1.05428 6.09924 0.929336 7.36782 1.17278 8.5917C1.41623 9.81558 2.01713 10.9398 2.89949 11.8222C3.78186 12.7045 4.90607 13.3054 6.12995 13.5489C7.35383 13.7923 8.62241 13.6674 9.77528 13.1898C10.9282 12.7123 11.9135 11.9036 12.6068 10.8661C13.3001 9.82852 13.6701 8.60868 13.6701 7.36083C13.6701 5.6875 13.0054 4.08271 11.8222 2.89949C10.6389 1.71627 9.03415 1.05155 7.36083 1.05155Z" fill="#111111" fill-opacity="0.6"/>
<path d="M9.77403 10.5155L6.83496 7.57643V2.62891H7.88651V7.14004L10.5154 9.77416L9.77403 10.5155Z" fill="#111111" fill-opacity="0.6"/>
</svg>
