<svg width="26" height="26" viewBox="0 0 26 26" fill="none" xmlns="http://www.w3.org/2000/svg">
<path d="M9.1 10.14L12.74 6.5C13 6.24 13.3033 6.11 13.65 6.11C13.9967 6.11 14.3 6.24 14.56 6.5L25.61 17.55C25.87 17.81 26 18.1025 26 18.4275C26 18.7525 25.87 19.045 25.61 19.305L21.97 22.945C21.71 23.205 21.3958 23.335 21.0275 23.335C20.6592 23.335 20.345 23.205 20.085 22.945L9.1 11.96C8.84 11.7 8.71 11.3967 8.71 11.05C8.71 10.7033 8.84 10.4 9.1 10.14ZM4.42 -5.74281e-06L9.945 5.525L8.125 7.345L2.6 1.81999L4.42 -5.74281e-06ZM4.55 16.9C5.80667 16.9 6.87917 17.3442 7.7675 18.2325C8.65583 19.1208 9.1 20.1933 9.1 21.45C9.1 22.7067 8.65583 23.7792 7.7675 24.6675C6.87917 25.5558 5.80667 26 4.55 26C3.29333 26 2.22083 25.5558 1.3325 24.6675C0.444166 23.7792 1.61944e-06 22.7067 -3.97774e-07 21.45C-5.07635e-07 20.1933 0.444166 19.1208 1.3325 18.2325C2.22083 17.3442 3.29333 16.9 4.55 16.9Z" fill="#C3282E"/>
</svg>
