<svg width="17" height="21" viewBox="0 0 17 21" fill="none" xmlns="http://www.w3.org/2000/svg">
<path fill-rule="evenodd" clip-rule="evenodd" d="M10.6038 0.265095C10.6038 0.194788 10.5759 0.12736 10.5262 0.0776446C10.4764 0.0279296 10.409 0 10.3387 0H2.91605C2.14266 0 1.40095 0.307225 0.85409 0.85409C0.307225 1.40095 0 2.14266 0 2.91605V17.7614C0 18.5348 0.307225 19.2765 0.85409 19.8233C1.40095 20.3702 2.14266 20.6774 2.91605 20.6774H13.5199C14.2932 20.6774 15.0349 20.3702 15.5818 19.8233C16.1287 19.2765 16.4359 18.5348 16.4359 17.7614V7.31344C16.4359 7.24314 16.408 7.17571 16.3583 7.12599C16.3085 7.07628 16.2411 7.04835 16.1708 7.04835H11.3991C11.1882 7.04835 10.9859 6.96456 10.8367 6.81542C10.6876 6.66627 10.6038 6.46399 10.6038 6.25306V0.265095ZM11.3991 10.6038C11.61 10.6038 11.8123 10.6876 11.9614 10.8367C12.1106 10.9859 12.1944 11.1882 12.1944 11.3991C12.1944 11.61 12.1106 11.8123 11.9614 11.9614C11.8123 12.1106 11.61 12.1944 11.3991 12.1944H5.03681C4.82588 12.1944 4.6236 12.1106 4.47446 11.9614C4.32531 11.8123 4.24152 11.61 4.24152 11.3991C4.24152 11.1882 4.32531 10.9859 4.47446 10.8367C4.6236 10.6876 4.82588 10.6038 5.03681 10.6038H11.3991ZM11.3991 14.8453C11.61 14.8453 11.8123 14.9291 11.9614 15.0783C12.1106 15.2274 12.1944 15.4297 12.1944 15.6406C12.1944 15.8515 12.1106 16.0538 11.9614 16.203C11.8123 16.3521 11.61 16.4359 11.3991 16.4359H5.03681C4.82588 16.4359 4.6236 16.3521 4.47446 16.203C4.32531 16.0538 4.24152 15.8515 4.24152 15.6406C4.24152 15.4297 4.32531 15.2274 4.47446 15.0783C4.6236 14.9291 4.82588 14.8453 5.03681 14.8453H11.3991Z" fill="#C3282E"/>
<path d="M12.1943 0.608453C12.1943 0.413343 12.399 0.289278 12.5506 0.411222C12.6789 0.515139 12.7945 0.636023 12.8931 0.773872L16.0881 5.22429C16.1602 5.32609 16.0817 5.45757 15.9566 5.45757H12.4594C12.3891 5.45757 12.3217 5.42964 12.272 5.37993C12.2223 5.33021 12.1943 5.26278 12.1943 5.19248V0.608453Z" fill="#C3282E"/>
</svg>
