<svg width="13" height="17" viewBox="0 0 13 17" fill="none" xmlns="http://www.w3.org/2000/svg">
<path d="M6.49995 9.4545C5.9156 9.4545 5.34437 9.28122 4.8585 8.95657C4.37263 8.63192 3.99393 8.17048 3.77031 7.63061C3.54669 7.09074 3.48818 6.49668 3.60218 5.92355C3.71618 5.35043 3.99758 4.82398 4.41078 4.41078C4.82398 3.99758 5.35043 3.71618 5.92355 3.60218C6.49668 3.48818 7.09074 3.54669 7.63061 3.77031C8.17048 3.99393 8.63192 4.37263 8.95657 4.8585C9.28122 5.34437 9.4545 5.9156 9.4545 6.49995C9.45356 7.28326 9.14198 8.03421 8.5881 8.5881C8.03421 9.14198 7.28326 9.45356 6.49995 9.4545ZM6.49995 4.72723C6.14934 4.72723 5.8066 4.8312 5.51508 5.02599C5.22356 5.22078 4.99634 5.49764 4.86217 5.82156C4.728 6.14548 4.69289 6.50192 4.76129 6.8458C4.82969 7.18967 4.99853 7.50554 5.24645 7.75346C5.49437 8.00138 5.81024 8.17022 6.15411 8.23862C6.49799 8.30702 6.85442 8.27191 7.17835 8.13774C7.50227 8.00357 7.77913 7.77635 7.97392 7.48483C8.16871 7.19331 8.27268 6.85057 8.27268 6.49995C8.27221 6.02994 8.08529 5.57932 7.75294 5.24697C7.42059 4.91462 6.96997 4.7277 6.49995 4.72723Z" fill="#111111" fill-opacity="0.6"/>
<path d="M6.5 16.5454L1.5151 10.6665C1.44583 10.5782 1.37728 10.4894 1.30946 10.4C0.457949 9.27832 -0.00205706 7.90826 6.91533e-06 6.49999C6.91533e-06 4.77609 0.684826 3.12279 1.90381 1.9038C3.1228 0.684819 4.77609 0 6.5 0C8.22391 0 9.8772 0.684819 11.0962 1.9038C12.3152 3.12279 13 4.77609 13 6.49999C13.0021 7.90762 12.5423 9.27706 11.6911 10.3982L11.6905 10.4C11.6905 10.4 11.5133 10.6328 11.4867 10.6641L6.5 16.5454ZM2.25314 9.68795C2.25314 9.68795 2.39082 9.86994 2.42214 9.90894L6.5 14.7184L10.5832 9.90244C10.6092 9.86994 10.7474 9.68676 10.748 9.68617C11.4436 8.76974 11.8195 7.65051 11.8182 6.49999C11.8182 5.08953 11.2579 3.73683 10.2605 2.73947C9.26317 1.74212 7.91047 1.18182 6.5 1.18182C5.08953 1.18182 3.73683 1.74212 2.73948 2.73947C1.74213 3.73683 1.18182 5.08953 1.18182 6.49999C1.18058 7.65123 1.55692 8.7711 2.25314 9.68795Z" fill="#111111" fill-opacity="0.6"/>
</svg>
