<svg width="39" height="39" viewBox="0 0 39 39" fill="none" xmlns="http://www.w3.org/2000/svg">
<g filter="url(#filter0_d_1502_58)">
<circle cx="19.5" cy="18.5" r="15.5" fill="#C3282E"/>
</g>
<path d="M19.5 11C15.9161 11 13.0001 13.916 13.0001 17.4959C12.9765 22.7324 19.253 27.0743 19.5 27.2498C19.5 27.2498 26.0235 22.7324 25.9999 17.4999C25.9999 13.916 23.0839 11 19.5 11ZM19.5 20.7499C17.7044 20.7499 16.25 19.2955 16.25 17.4999C16.25 15.7043 17.7044 14.25 19.5 14.25C21.2956 14.25 22.75 15.7043 22.75 17.4999C22.75 19.2955 21.2956 20.7499 19.5 20.7499Z" fill="white"/>
<defs>
<filter id="filter0_d_1502_58" x="0" y="0" width="39" height="39" filterUnits="userSpaceOnUse" color-interpolation-filters="sRGB">
<feFlood flood-opacity="0" result="BackgroundImageFix"/>
<feColorMatrix in="SourceAlpha" type="matrix" values="0 0 0 0 0 0 0 0 0 0 0 0 0 0 0 0 0 0 127 0" result="hardAlpha"/>
<feMorphology radius="1" operator="dilate" in="SourceAlpha" result="effect1_dropShadow_1502_58"/>
<feOffset dy="1"/>
<feGaussianBlur stdDeviation="1.5"/>
<feComposite in2="hardAlpha" operator="out"/>
<feColorMatrix type="matrix" values="0 0 0 0 0.764706 0 0 0 0 0.156863 0 0 0 0 0.180392 0 0 0 0.2 0"/>
<feBlend mode="normal" in2="BackgroundImageFix" result="effect1_dropShadow_1502_58"/>
<feBlend mode="normal" in="SourceGraphic" in2="effect1_dropShadow_1502_58" result="shape"/>
</filter>
</defs>
</svg>
