<svg width="17" height="16" viewBox="0 0 17 16" fill="none" xmlns="http://www.w3.org/2000/svg">
<path fill-rule="evenodd" clip-rule="evenodd" d="M7.22 4.46983C7.07955 4.61045 7.00066 4.80108 7.00066 4.99983C7.00066 5.19858 7.07955 5.3892 7.22 5.52983L8.94 7.24983H0.75C0.551088 7.24983 0.360322 7.32885 0.21967 7.4695C0.0790175 7.61015 0 7.80092 0 7.99983C0 8.19874 0.0790175 8.38951 0.21967 8.53016C0.360322 8.67081 0.551088 8.74983 0.75 8.74983H8.94L7.22 10.4698C7.14631 10.5385 7.08721 10.6213 7.04622 10.7133C7.00523 10.8053 6.98318 10.9046 6.98141 11.0053C6.97963 11.106 6.99816 11.206 7.03588 11.2994C7.0736 11.3928 7.12974 11.4776 7.20096 11.5489C7.27218 11.6201 7.35701 11.6762 7.4504 11.714C7.54379 11.7517 7.64382 11.7702 7.74452 11.7684C7.84522 11.7666 7.94454 11.7446 8.03654 11.7036C8.12854 11.6626 8.21134 11.6035 8.28 11.5298L11.28 8.52983C11.4205 8.3892 11.4993 8.19858 11.4993 7.99983C11.4993 7.80108 11.4205 7.61045 11.28 7.46983L8.28 4.46983C8.13937 4.32938 7.94875 4.25049 7.75 4.25049C7.55125 4.25049 7.36063 4.32938 7.22 4.46983Z" fill="#C3282E"/>
<path d="M8.75 2.252C8.75 2.7 9.024 3.092 9.341 3.409L12.341 6.409C12.5499 6.61793 12.7157 6.86597 12.8287 7.13896C12.9418 7.41194 13 7.70452 13 8C13 8.29548 12.9418 8.58806 12.8287 8.86104C12.7157 9.13403 12.5499 9.38207 12.341 9.591L9.341 12.591C9.024 12.908 8.75 13.3 8.75 13.748V16C10.8717 16 12.9066 15.1571 14.4069 13.6569C15.9071 12.1566 16.75 10.1217 16.75 8C16.75 5.87827 15.9071 3.84344 14.4069 2.34315C12.9066 0.842855 10.8717 0 8.75 0V2.252Z" fill="#C3282E"/>
</svg>
