<svg width="28" height="23" viewBox="0 0 28 23" fill="none" xmlns="http://www.w3.org/2000/svg">
<path d="M4.2 9.7999C5.74437 9.7999 7 8.54428 7 6.9999C7 5.45553 5.74437 4.1999 4.2 4.1999C2.65563 4.1999 1.4 5.45553 1.4 6.9999C1.4 8.54428 2.65563 9.7999 4.2 9.7999ZM23.8 9.7999C25.3444 9.7999 26.6 8.54428 26.6 6.9999C26.6 5.45553 25.3444 4.1999 23.8 4.1999C22.2556 4.1999 21 5.45553 21 6.9999C21 8.54428 22.2556 9.7999 23.8 9.7999ZM25.2 11.1999H22.4C21.63 11.1999 20.9344 11.5105 20.4269 12.0137C22.19 12.9805 23.4412 14.7262 23.7125 16.7999H26.6C27.3744 16.7999 28 16.1743 28 15.3999V13.9999C28 12.4555 26.7444 11.1999 25.2 11.1999ZM14 11.1999C16.7081 11.1999 18.9 9.00803 18.9 6.2999C18.9 3.59178 16.7081 1.3999 14 1.3999C11.2919 1.3999 9.1 3.59178 9.1 6.2999C9.1 9.00803 11.2919 11.1999 14 11.1999ZM17.36 12.5999H16.9969C16.0869 13.0374 15.0763 13.2999 14 13.2999C12.9237 13.2999 11.9175 13.0374 11.0031 12.5999H10.64C7.8575 12.5999 5.6 14.8574 5.6 17.6399V18.8999C5.6 20.0593 6.54063 20.9999 7.7 20.9999H20.3C21.4594 20.9999 22.4 20.0593 22.4 18.8999V17.6399C22.4 14.8574 20.1425 12.5999 17.36 12.5999ZM7.57313 12.0137C7.06563 11.5105 6.37 11.1999 5.6 11.1999H2.8C1.25563 11.1999 0 12.4555 0 13.9999V15.3999C0 16.1743 0.625625 16.7999 1.4 16.7999H4.28312C4.55875 14.7262 5.81 12.9805 7.57313 12.0137Z" fill="#C3282E"/>
</svg>
