<svg width="21" height="21" viewBox="0 0 21 21" fill="none" xmlns="http://www.w3.org/2000/svg">
<g clip-path="url(#clip0_1505_1284)">
<path d="M2.625 18.375H21V21H0V0H2.625V18.375ZM5.90625 17.0625C5.64013 17.063 5.37667 17.0096 5.13178 16.9055C4.8869 16.8013 4.66567 16.6486 4.48146 16.4565C4.29725 16.2645 4.1539 16.0371 4.06005 15.788C3.9662 15.539 3.92382 15.2736 3.93545 15.0077C3.94708 14.7418 4.01249 14.4811 4.12773 14.2412C4.24297 14.0013 4.40564 13.7873 4.60592 13.6121C4.80619 13.4369 5.03992 13.304 5.29296 13.2217C5.54601 13.1393 5.81314 13.1091 6.07819 13.1329L8.19394 9.60619C8.00048 9.30909 7.89084 8.96526 7.87659 8.61101C7.86234 8.25676 7.94402 7.90523 8.113 7.59356C8.28198 7.28188 8.53199 7.02162 8.83662 6.84025C9.14126 6.65889 9.48921 6.56315 9.84375 6.56315C10.1983 6.56315 10.5462 6.65889 10.8509 6.84025C11.1555 7.02162 11.4055 7.28188 11.5745 7.59356C11.7435 7.90523 11.8252 8.25676 11.8109 8.61101C11.7967 8.96526 11.687 9.30909 11.4936 9.60619L13.6093 13.1329C13.7097 13.1238 13.8107 13.123 13.9112 13.1302L17.4051 7.01663C17.154 6.64885 17.035 6.20681 17.0676 5.76269C17.1001 5.31858 17.2823 4.89861 17.5843 4.57137C17.8863 4.24412 18.2903 4.02893 18.7304 3.96093C19.1705 3.89293 19.6206 3.97613 20.0073 4.19696C20.394 4.41779 20.6944 4.76319 20.8595 5.17677C21.0246 5.59035 21.0446 6.04768 20.9162 6.47409C20.7879 6.9005 20.5187 7.27079 20.1528 7.52452C19.7868 7.77824 19.3457 7.90041 18.9013 7.87106L15.4074 13.9847C15.6082 14.2791 15.7253 14.6225 15.7462 14.9782C15.7671 15.334 15.6911 15.6887 15.5262 16.0046C15.3613 16.3205 15.1138 16.5858 14.8101 16.7721C14.5063 16.9583 14.1576 17.0587 13.8013 17.0624C13.445 17.0661 13.0943 16.9731 12.7868 16.7931C12.4792 16.6132 12.2262 16.3532 12.0548 16.0408C11.8834 15.7284 11.8 15.3753 11.8135 15.0192C11.827 14.6631 11.9369 14.3173 12.1314 14.0188L10.0157 10.4921C9.90131 10.5027 9.78619 10.5027 9.67181 10.4921L7.55606 14.0188C7.74969 14.3159 7.85948 14.6598 7.87381 15.0142C7.88815 15.3685 7.8065 15.7202 7.63751 16.0319C7.46851 16.3437 7.21843 16.6041 6.9137 16.7855C6.60896 16.9669 6.26089 17.0626 5.90625 17.0625Z" fill="#C3282E"/>
</g>
<defs>
<clipPath id="clip0_1505_1284">
<rect width="21" height="21" fill="white"/>
</clipPath>
</defs>
</svg>
