<svg width="24" height="27" viewBox="0 0 24 27" fill="none" xmlns="http://www.w3.org/2000/svg">
<path d="M11.1633 2.78846C11.1633 3.528 10.8695 4.23726 10.3466 4.7602C9.82365 5.28313 9.1144 5.57692 8.37485 5.57692C7.63531 5.57692 6.92605 5.28313 6.40312 4.7602C5.88018 4.23726 5.5864 3.528 5.5864 2.78846C5.5864 2.04891 5.88018 1.33966 6.40312 0.81672C6.92605 0.293783 7.63531 0 8.37485 0C9.1144 0 9.82365 0.293783 10.3466 0.81672C10.8695 1.33966 11.1633 2.04891 11.1633 2.78846ZM16.5172 13.3474L12.7992 9.62947C12.7088 9.52085 12.5949 9.43426 12.4661 9.37627C12.3372 9.31829 12.1968 9.29045 12.0556 9.29486H3.26268C2.9247 9.2872 2.59573 9.40427 2.33857 9.62372C2.0814 9.84316 1.91405 10.1496 1.86845 10.4846L0.00947961 24.7987C-0.00315987 24.885 -0.00315987 24.9726 0.00947961 25.0589C0.00947961 25.3055 0.107408 25.5419 0.28172 25.7162C0.456032 25.8905 0.692451 25.9884 0.938966 25.9884C1.14227 26.0022 1.34432 25.9474 1.51282 25.8329C1.68132 25.7183 1.80654 25.5505 1.86845 25.3564L4.09922 18.125L4.58255 16.582L5.32614 17.4L7.44537 19.7051V25.0961C7.44537 25.3426 7.5433 25.5791 7.71761 25.7534C7.89192 25.9277 8.12834 26.0256 8.37485 26.0256C8.62137 26.0256 8.85779 25.9277 9.0321 25.7534C9.20641 25.5791 9.30434 25.3426 9.30434 25.0961V19.5192C9.28928 19.3727 9.23819 19.2322 9.15562 19.1102L6.4787 15.8013L8.33767 11.1538H11.5165L15.2345 14.5743C15.3197 14.6732 15.4253 14.7527 15.544 14.8072C15.6627 14.8617 15.7917 14.8901 15.9223 14.8904C16.1522 14.8627 16.3636 14.7501 16.5149 14.5747C16.6661 14.3994 16.7465 14.1738 16.7402 13.9423C16.7397 13.7237 16.6605 13.5125 16.5172 13.3474ZM22.3171 20.9506C22.1341 20.9506 21.9527 20.9867 21.7836 21.0567C21.6144 21.1268 21.4607 21.2295 21.3313 21.359C21.2018 21.4884 21.0991 21.6421 21.029 21.8113C20.959 21.9804 20.9229 22.1618 20.9229 22.3448C20.9229 22.5279 20.959 22.7092 21.029 22.8784C21.0991 23.0475 21.2018 23.2012 21.3313 23.3307C21.4607 23.4602 21.6144 23.5629 21.7836 23.6329C21.9527 23.703 22.1341 23.7391 22.3171 23.7391C22.6869 23.7391 23.0415 23.5922 23.303 23.3307C23.5645 23.0692 23.7114 22.7146 23.7114 22.3448C23.7114 21.9751 23.5645 21.6204 23.303 21.359C23.0415 21.0975 22.6869 20.9506 22.3171 20.9506ZM16.2941 18.1064V16.7307C16.2941 16.6075 16.2451 16.4893 16.158 16.4021C16.0708 16.315 15.9526 16.266 15.8293 16.266C15.7061 16.266 15.5879 16.315 15.5007 16.4021C15.4136 16.4893 15.3646 16.6075 15.3646 16.7307V18.1064C15.2256 18.1845 15.1095 18.2977 15.0279 18.4347C14.9464 18.5717 14.9022 18.7277 14.8998 18.8872V25.0961C14.8998 25.3426 14.9978 25.5791 15.1721 25.7534C15.3464 25.9277 15.5828 26.0256 15.8293 26.0256C16.0758 26.0256 16.3123 25.9277 16.4866 25.7534C16.6609 25.5791 16.7588 25.3426 16.7588 25.0961V18.8872C16.7565 18.7277 16.7123 18.5717 16.6307 18.4347C16.5492 18.2977 16.4331 18.1845 16.2941 18.1064Z" fill="#C3282E"/>
</svg>
