<svg width="24" height="18" viewBox="0 0 24 18" fill="none" xmlns="http://www.w3.org/2000/svg">
<path d="M3.9 0.600098C2.86566 0.600098 1.87368 1.01099 1.14228 1.74238C0.410892 2.47377 0 3.46575 0 4.5001V6.0001H24V4.5001C24 3.98794 23.8991 3.4808 23.7031 3.00763C23.5071 2.53446 23.2199 2.10453 22.8577 1.74238C22.4956 1.38023 22.0656 1.09296 21.5925 0.896968C21.1193 0.700974 20.6122 0.600098 20.1 0.600098H3.9ZM24 7.8001H0V13.5001C0 14.5344 0.410892 15.5264 1.14228 16.2578C1.87368 16.9892 2.86566 17.4001 3.9 17.4001H20.1C20.6122 17.4001 21.1193 17.2992 21.5925 17.1032C22.0656 16.9072 22.4956 16.62 22.8577 16.2578C23.2199 15.8957 23.5071 15.4657 23.7031 14.9926C23.8991 14.5194 24 14.0123 24 13.5001V7.8001ZM16.5 12.0001H19.5C19.7387 12.0001 19.9676 12.0949 20.1364 12.2637C20.3052 12.4325 20.4 12.6614 20.4 12.9001C20.4 13.1388 20.3052 13.3677 20.1364 13.5365C19.9676 13.7053 19.7387 13.8001 19.5 13.8001H16.5C16.2613 13.8001 16.0324 13.7053 15.8636 13.5365C15.6948 13.3677 15.6 13.1388 15.6 12.9001C15.6 12.6614 15.6948 12.4325 15.8636 12.2637C16.0324 12.0949 16.2613 12.0001 16.5 12.0001Z" fill="#C3282E"/>
</svg>
